<svg width="115" height="61" viewBox="0 0 115 61" fill="none" xmlns="http://www.w3.org/2000/svg">
<g clip-path="url(#clip0_1_130)" filter="url(#filter0_d_1_130)">
<path d="M13.8469 40.1639H13.9176L17.1473 28.4953C17.5116 27.1896 18.2728 25.8785 19.6865 26.2021C21.5515 26.6355 21.5515 27.3706 21.5515 28.0015C21.5515 28.424 21.4047 28.9561 21.1491 29.6254L15.8696 47.0379C14.5972 50.5599 13.1455 52.3977 9.807 52.3977C7.44723 52.3977 6.46852 51.273 6.46852 50.0332C6.46852 48.6617 8.04533 47.9705 9.45902 47.9705H10.0027C10.6933 47.9705 11.5415 47.6029 11.9439 46.012L4.65247 30.9859C4.21749 29.757 4 29.192 4 28.594C4 27.1841 4.20118 26.8495 5.73993 26.2625C6.81107 25.851 8.13776 27.036 8.464 28.2045L13.8469 40.1639Z" fill="black"/>
<path d="M55.8926 28.6221C55.8926 26.9928 56.594 26.126 58.1001 26.126C59.541 26.126 60.3131 26.9928 60.3131 28.6221V29.456H60.3783C61.183 27.2122 63.1568 26.126 65.5329 26.126C69.6162 26.126 73.1994 29.3462 73.1994 36.1818C73.1994 41.2453 70.8233 45.9852 65.6688 45.9852C63.4286 45.9852 61.7485 45.0087 60.8514 43.3081H60.7861V50.363C60.7861 52.1021 59.8128 53.0073 58.3393 53.0073C56.8658 53.0073 55.8926 52.1021 55.8926 50.363V28.6221ZM66.604 29.7687C63.6516 29.7687 62.5369 32.8244 62.5369 36.1653C62.5369 39.1826 63.5102 42.7265 66.604 42.6827C69.8337 42.6827 70.633 38.9028 70.633 36.1653C70.633 32.7037 69.3118 29.8455 66.604 29.7687Z" fill="black"/>
<path d="M45.3926 22.3405C45.3926 20.574 46.355 19.6523 47.8176 19.6523C49.2802 19.6523 50.2426 20.574 50.2426 22.3405V44.4051C50.2426 46.1715 49.2802 47.0877 47.8176 47.0877C46.355 47.0877 45.3926 46.1661 45.3926 44.4051V22.3405Z" fill="black"/>
<path d="M28.533 37.8003C28.533 40.664 30.0935 42.7487 32.7414 42.7487C36.1724 42.7487 36.1724 40.0715 38.0156 40.0715C39.1085 40.0715 39.886 41.1907 39.886 42.1946C39.886 45.4697 35.4873 46.9948 32.7414 46.9948C26.3798 46.9948 23.9766 41.86 23.9766 37.131C23.9766 30.8057 27.19 26.5596 32.5838 26.5596C37.8253 26.5596 40.8212 30.9868 40.8212 35.4523C40.8212 37.3121 40.3536 37.7948 38.8257 37.7948H28.533V37.8003ZM36.0364 34.8708C35.77 32.0949 34.0953 30.0651 31.9204 30.0651C29.4791 30.0651 28.0056 31.9303 27.4673 34.8708H36.0364Z" fill="black"/>
<path d="M110.733 9.60211C110.554 10.0355 110.309 10.4085 109.994 10.7212C109.678 11.0339 109.314 11.2808 108.89 11.4618C108.471 11.6429 108.02 11.7361 107.536 11.7361C107.052 11.7361 106.601 11.6429 106.182 11.4618C105.764 11.2808 105.394 11.0339 105.078 10.7212C104.763 10.4085 104.513 10.0355 104.328 9.60211C104.143 9.16872 104.051 8.70241 104.051 8.20319C104.051 7.71494 104.143 7.2541 104.328 6.8262C104.513 6.39829 104.763 6.03073 105.078 5.71803C105.394 5.40533 105.758 5.15846 106.182 4.97742C106.601 4.79639 107.052 4.70312 107.536 4.70312C108.02 4.70312 108.471 4.79639 108.89 4.97742C109.309 5.15846 109.678 5.40533 109.994 5.71803C110.309 6.03073 110.554 6.39829 110.733 6.8262C110.913 7.2541 111 7.70945 111 8.20319C111 8.70241 110.913 9.16872 110.733 9.60211ZM110.222 7.01272C110.07 6.63967 109.863 6.31052 109.608 6.03622C109.352 5.76192 109.048 5.54248 108.694 5.38339C108.341 5.21881 107.96 5.142 107.552 5.142C107.145 5.142 106.764 5.22429 106.411 5.38339C106.057 5.54248 105.753 5.76192 105.492 6.03622C105.231 6.31052 105.024 6.63967 104.872 7.01272C104.72 7.39125 104.643 7.78624 104.643 8.19769C104.643 8.6256 104.72 9.02608 104.872 9.39913C105.024 9.77218 105.231 10.1013 105.492 10.3811C105.753 10.6609 106.063 10.8858 106.421 11.0449C106.78 11.204 107.161 11.2863 107.569 11.2863C107.966 11.2863 108.341 11.204 108.694 11.0449C109.048 10.8858 109.347 10.6664 109.608 10.3866C109.863 10.1123 110.07 9.78863 110.222 9.4101C110.374 9.03705 110.45 8.63657 110.45 8.20866C110.45 7.79173 110.374 7.39125 110.222 7.01272ZM108.531 10.2494C108.428 10.1123 108.324 9.78315 108.232 9.25101C108.178 8.9822 108.08 8.79018 107.938 8.68046C107.797 8.57074 107.59 8.51588 107.319 8.51588H106.846V10.2494H106.34V6.32697C106.519 6.30503 106.682 6.28857 106.835 6.26663C106.987 6.24468 107.161 6.23371 107.362 6.23371C107.634 6.23371 107.868 6.26114 108.063 6.316C108.259 6.37635 108.411 6.44218 108.526 6.52995C108.765 6.70551 108.885 6.97432 108.885 7.32542C108.885 7.59423 108.808 7.80819 108.656 7.96728C108.504 8.12089 108.324 8.23061 108.112 8.29644V8.32936C108.471 8.38971 108.694 8.70789 108.787 9.28391C108.841 9.58564 108.885 9.80508 108.928 9.94772C108.972 10.0904 109.01 10.1891 109.053 10.2549H108.531V10.2494ZM108.129 6.88106C107.976 6.72196 107.699 6.63967 107.302 6.63967C107.199 6.63967 107.107 6.63967 107.036 6.65065C106.96 6.65613 106.9 6.66162 106.846 6.67259V8.14283H107.335C107.607 8.14283 107.846 8.08797 108.053 7.97825C108.259 7.86853 108.357 7.67652 108.357 7.40771C108.357 7.2157 108.281 7.04015 108.129 6.88106Z" fill="black"/>
<path d="M92.8505 24.6708C92.2035 25.3291 92.7526 26.525 92.7526 26.525L97.619 34.7266C97.619 34.7266 98.4183 35.8073 99.1088 35.8073C99.8048 35.8073 100.49 35.2313 100.49 35.2313L104.339 29.6795C104.339 29.6795 104.725 28.9773 104.736 28.3683C104.753 27.4961 103.448 27.2547 103.448 27.2547L94.3349 24.3032C94.3349 24.3032 93.4432 24.0673 92.8505 24.6708Z" fill="black"/>
<path d="M92.3876 20.5323C92.8552 21.3278 94.1384 21.0974 94.1384 21.0974L103.23 18.4147C103.23 18.4147 104.469 17.9045 104.643 17.2298C104.817 16.5495 104.437 15.7321 104.437 15.7321L100.092 10.5698C100.092 10.5698 99.717 9.91697 98.9341 9.85114C98.075 9.77982 97.5421 10.8276 97.5421 10.8276L92.4039 18.9798C92.4148 18.9908 91.958 19.8027 92.3876 20.5323Z" fill="black"/>
<path d="M88.0918 17.3576C89.163 17.0942 89.3315 15.5252 89.3315 15.5252L89.2608 2.46862C89.2608 2.46862 89.0977 0.855748 88.38 0.422356C87.2545 -0.268877 86.9228 0.0931976 86.5966 0.142571L79.0496 2.97333C79.0496 2.97333 78.3102 3.2202 77.9241 3.84012C77.375 4.72336 78.4842 6.01256 78.4842 6.01256L86.3301 16.798C86.3301 16.7925 87.1077 17.6044 88.0918 17.3576Z" fill="black"/>
<path d="M86.2275 22.642C86.2547 21.6326 85.0313 21.0291 85.0313 21.0291L76.9189 16.8927C76.9189 16.8927 75.7172 16.3935 75.1355 16.7391C74.6896 17.0079 74.2927 17.4906 74.2546 17.9131L73.7272 24.4743C73.7272 24.4743 73.6456 25.6099 73.9393 26.1311C74.3525 26.8662 75.7118 26.356 75.7118 26.356L85.1835 24.2439C85.5478 23.997 86.1949 23.9751 86.2275 22.642Z" fill="black"/>
<path d="M88.5886 26.1858C87.773 25.7634 86.8051 26.6357 86.8051 26.6357L80.4653 33.6796C80.4653 33.6796 79.6715 34.7549 79.8781 35.4187C80.0684 36.0386 80.3837 36.3458 80.8241 36.5653L87.1912 38.5951C87.1912 38.5951 87.9633 38.7542 88.5505 38.5841C89.3824 38.3427 89.2302 37.0316 89.2302 37.0316L89.3715 27.497C89.3607 27.4915 89.328 26.5698 88.5886 26.1858Z" fill="black"/>
</g>
<defs>
<filter id="filter0_d_1_130" x="0" y="0" width="115" height="61" filterUnits="userSpaceOnUse" color-interpolation-filters="sRGB">
<feFlood flood-opacity="0" result="BackgroundImageFix"/>
<feColorMatrix in="SourceAlpha" type="matrix" values="0 0 0 0 0 0 0 0 0 0 0 0 0 0 0 0 0 0 127 0" result="hardAlpha"/>
<feOffset dy="4"/>
<feGaussianBlur stdDeviation="2"/>
<feComposite in2="hardAlpha" operator="out"/>
<feColorMatrix type="matrix" values="0 0 0 0 0 0 0 0 0 0 0 0 0 0 0 0 0 0 0.25 0"/>
<feBlend mode="normal" in2="BackgroundImageFix" result="effect1_dropShadow_1_130"/>
<feBlend mode="normal" in="SourceGraphic" in2="effect1_dropShadow_1_130" result="shape"/>
</filter>
<clipPath id="clip0_1_130">
<rect width="107" height="53" fill="white" transform="translate(4)"/>
</clipPath>
</defs>
</svg>
